<?xml version="1.0" encoding="UTF-8"?>
<svg width="38px" height="38px" viewBox="0 0 38 38" version="1.1" xmlns="http://www.w3.org/2000/svg" xmlns:xlink="http://www.w3.org/1999/xlink">
    <!-- Generator: Sketch 52.4 (67378) - http://www.bohemiancoding.com/sketch -->
    <title>Group 6</title>
    <desc>Created with Sketch.</desc>
    <g id="Page-1" stroke="none" stroke-width="1" fill="none" fill-rule="evenodd">
        <g id="NCP_mobile_1" transform="translate(-16.000000, -329.000000)">
            <g id="Group-6" transform="translate(17.000000, 330.000000)">
                <circle id="Base" stroke="#E46D03" fill="#FF7800" cx="18" cy="18" r="18"></circle>
                <path d="M14.4782609,24.0370187 C14.4782609,24.2287744 14.3108204,24.4448993 14.1061757,24.517445 L9.3721286,26.193428 C9.16739709,26.2659305 9,26.1682811 9,25.9764822 L9,11.1803983 C9,10.9886426 9.16739709,10.7724745 9.3721286,10.699972 L14.1061757,9.02394583 C14.3108204,8.95148653 14.4782609,9.0490927 14.4782609,9.24089163 L14.4782609,24.0370187 Z" id="Path" fill="#FFFFFF"></path>
                <path d="M20.7391304,25.9765226 C20.7391304,26.168278 20.5716886,26.265884 20.3669989,26.1934681 L15.6329577,24.5174442 C15.428268,24.4449418 15.2608696,24.2287308 15.2608696,24.037105 L15.2608696,9.24086875 C15.2608696,9.04911329 15.428268,8.95150726 15.6329577,9.02392325 L20.3669989,10.6999471 C20.5716886,10.7724495 20.7391304,10.9886605 20.7391304,11.1803728 L20.7391304,25.9765226 Z" id="Path" fill="#FFFFFF"></path>
                <path d="M27,24.0370187 C27,24.2287744 26.8326897,24.4448993 26.6279148,24.517445 L21.8938243,26.193428 C21.6891362,26.2659305 21.5217391,26.1682811 21.5217391,25.9764822 L21.5217391,11.1803983 C21.5217391,10.9886426 21.6891362,10.7724745 21.8938243,10.699972 L26.6278714,9.02394583 C26.8326463,8.95148653 26.9999566,9.0490927 26.9999566,9.24089163 L26.9999566,24.0370187 L27,24.0370187 Z" id="Path" fill="#FFFFFF"></path>
            </g>
        </g>
    </g>
</svg>