<?xml version="1.0" encoding="UTF-8"?>
<svg width="38px" height="38px" viewBox="0 0 38 38" version="1.1" xmlns="http://www.w3.org/2000/svg" xmlns:xlink="http://www.w3.org/1999/xlink">
    <!-- Generator: Sketch 52.4 (67378) - http://www.bohemiancoding.com/sketch -->
    <title>Group 5</title>
    <desc>Created with Sketch.</desc>
    <g id="Page-1" stroke="none" stroke-width="1" fill="none" fill-rule="evenodd">
        <g id="NCP_mobile_1" transform="translate(-16.000000, -276.000000)">
            <g id="Group-5" transform="translate(17.000000, 277.217391)">
                <circle id="Base" stroke="#E46D03" fill="#E56C00" cx="18" cy="18" r="18"></circle>
                <g id="Group-3" transform="translate(11.000000, 11.000000)" fill="#FFFFFF">
                    <path d="M12.7795276,9.94488189 L12.7795276,9 L9.47244094,9 C9.21150591,9 9,9.21150591 9,9.47244094 L9,12.7795276 L9.94488189,12.7795276 L9.94488189,10.6110236 L14.3338583,15 L15,14.3338583 L10.6110236,9.94488189 L12.7795276,9.94488189 Z" id="Path"></path>
                    <path d="M5.52755906,9 L2.22047244,9 L2.22047244,9.94488189 L4.38897638,9.94488189 L0,14.3338583 L0.666141732,15 L5.05511811,10.6110236 L5.05511811,12.7795276 L6,12.7795276 L6,9.47244094 C6,9.21150591 5.78849409,9 5.52755906,9 Z" id="Path"></path>
                    <path d="M5.05511811,4.38897638 L0.666141732,0 L0,0.666141732 L4.38897638,5.05511811 L2.22047244,5.05511811 L2.22047244,6 L5.52755906,6 C5.78849409,6 6,5.78849409 6,5.52755906 L6,2.22047244 L5.05511811,2.22047244 L5.05511811,4.38897638 Z" id="Path"></path>
                    <path d="M14.3338583,0 L9.94488189,4.3902439 L9.94488189,2.22344611 L9,2.22344611 L9,5.52793076 C9,5.7886605 9.21150591,6 9.47244094,6 L12.7795276,6 L12.7795276,5.05586153 L10.6110236,5.05586153 L15,0.670338316 L14.3338583,0 Z" id="Path"></path>
                </g>
            </g>
        </g>
    </g>
</svg>